<svg xmlns="http://www.w3.org/2000/svg" viewBox="0 0 65.78 66.97"><defs><style>.cls-1,.cls-2{fill:#fff;}.cls-2{fill-rule:evenodd;}</style></defs><g id="Capa_2" data-name="Capa 2"><path class="cls-1" d="M102.15,420a5,5,0,1,1-5-5A5,5,0,0,1,102.15,420Z" transform="translate(-77.2 -358)"/><path class="cls-1" d="M119.62,425a5,5,0,1,0-5-5A5,5,0,0,0,119.62,425Z" transform="translate(-77.2 -358)"/><path class="cls-2" d="M123.87,401.81c-.19.81-.35,1.47-.52,2a4.89,4.89,0,0,1-.72,1.63,5,5,0,0,1-2,1.63,5.26,5.26,0,0,1-1.75.35c-.94.07-2.14.07-3.92.07h-13.1c-1.78,0-3,0-3.91-.07a5.19,5.19,0,0,1-1.75-.35,5,5,0,0,1-2-1.63,5.11,5.11,0,0,1-.72-1.63c-.27-.9-.53-2.07-.92-3.8l-2.22-10H102a23.3,23.3,0,0,1-2.06-5H89l-.35-1a9.41,9.41,0,0,0-8.93-6.44,2.5,2.5,0,1,0,0,5,4.43,4.43,0,0,1,4.2,3l.88,2.62,2.88,13c.36,1.62.66,3,1,4.07a10.28,10.28,0,0,0,1.47,3.14,9.58,9.58,0,0,0,7.43,4c1.15.09,2.53.09,4.2.09H115c1.67,0,3,0,4.2-.09a9.56,9.56,0,0,0,8.9-7.14c.33-1.09.63-2.45,1-4.07l.09-.4A22.94,22.94,0,0,1,123.87,401.81Z" transform="translate(-77.2 -358)"/><path class="cls-1" d="M122.19,358h0A20.79,20.79,0,0,1,143,378.79h0a20.79,20.79,0,0,1-20.79,20.8h0a20.8,20.8,0,0,1-20.8-20.8h0A20.79,20.79,0,0,1,122.19,358Z" transform="translate(-77.2 -358)"/></g></svg>