<svg xmlns="http://www.w3.org/2000/svg" viewBox="0 0 53.59 47.41"><defs><style>.cls-1,.cls-2{fill:#fff;}.cls-1{fill-rule:evenodd;}</style></defs><g id="Capa_2_copia" data-name="Capa 2 copia"><path class="cls-1" d="M163.47,379.75a2.49,2.49,0,0,1,2.49-2.5,9.43,9.43,0,0,1,8.94,6.44l.34,1.05H206c1.63,0,3,0,4.15.1a7.7,7.7,0,0,1,3.42,1,7.44,7.44,0,0,1,3.2,4,7.67,7.67,0,0,1,.22,3.55c-.14,1.12-.44,2.48-.8,4.07l-.76,3.44c-.37,1.63-.67,3-1,4.08a9.55,9.55,0,0,1-5.52,6.39,10.14,10.14,0,0,1-3.38.75c-1.14.08-2.53.08-4.19.08H188c-1.66,0-3,0-4.19-.08a10.14,10.14,0,0,1-3.38-.75,9.55,9.55,0,0,1-5.52-6.39c-.33-1.1-.64-2.45-1-4.08l-2.88-13-.88-2.63a4.42,4.42,0,0,0-4.2-3A2.48,2.48,0,0,1,163.47,379.75Zm13.09,10,2.22,10c.38,1.74.64,2.91.91,3.81a5.47,5.47,0,0,0,.72,1.63,5.06,5.06,0,0,0,2,1.63,5.26,5.26,0,0,0,1.75.34c.94.07,2.13.07,3.91.07h13.11c1.78,0,3,0,3.91-.07a5.26,5.26,0,0,0,1.75-.34,5.06,5.06,0,0,0,2-1.63,5.47,5.47,0,0,0,.72-1.63c.27-.9.53-2.07.91-3.81l.72-3.24c.39-1.73.64-2.87.75-3.75a3.07,3.07,0,0,0,0-1.3,2.55,2.55,0,0,0-1.07-1.33,3.28,3.28,0,0,0-1.27-.28c-.88-.08-2-.08-3.82-.08Z" transform="translate(-163.47 -377.25)"/><path class="cls-2" d="M188.42,419.67a5,5,0,1,1-5-5A5,5,0,0,1,188.42,419.67Z" transform="translate(-163.47 -377.25)"/><path class="cls-2" d="M205.88,424.66a5,5,0,1,0-5-5A5,5,0,0,0,205.88,424.66Z" transform="translate(-163.47 -377.25)"/></g></svg>