<svg xmlns="http://www.w3.org/2000/svg" xmlns:xlink="http://www.w3.org/1999/xlink" width="26" zoomAndPan="magnify" viewBox="0 0 19.5 19.499999" height="26" preserveAspectRatio="xMidYMid meet" version="1.0"><defs><clipPath id="0df037b8f7"><path d="M 0.257812 0 L 19 0 L 19 19 L 0.257812 19 Z M 0.257812 0 " clip-rule="nonzero"/></clipPath></defs><g clip-path="url(#0df037b8f7)"><path fill="#ffffff" d="M 4.527344 5.128906 C 4.527344 4.792969 4.558594 4.460938 4.625 4.132812 C 4.691406 3.800781 4.789062 3.480469 4.917969 3.171875 C 5.046875 2.859375 5.203125 2.566406 5.390625 2.285156 C 5.578125 2.007812 5.789062 1.746094 6.027344 1.511719 C 6.265625 1.273438 6.523438 1.058594 6.804688 0.875 C 7.082031 0.6875 7.378906 0.527344 7.6875 0.398438 C 8 0.269531 8.320312 0.171875 8.648438 0.109375 C 8.980469 0.0429688 9.3125 0.0078125 9.648438 0.0078125 C 16.417969 0.246094 16.429688 9.992188 9.664062 10.25 C 9.328125 10.253906 8.996094 10.21875 8.664062 10.15625 C 8.332031 10.089844 8.011719 9.992188 7.703125 9.867188 C 7.390625 9.738281 7.09375 9.578125 6.8125 9.394531 C 6.53125 9.207031 6.273438 8.992188 6.035156 8.757812 C 5.796875 8.519531 5.582031 8.257812 5.394531 7.980469 C 5.207031 7.699219 5.050781 7.40625 4.917969 7.09375 C 4.789062 6.78125 4.691406 6.460938 4.625 6.132812 C 4.558594 5.800781 4.527344 5.46875 4.527344 5.128906 Z M 14.832031 10.253906 C 14.527344 10.066406 14.226562 10.074219 13.929688 10.277344 C 13.3125 10.777344 12.632812 11.15625 11.882812 11.421875 C 11.136719 11.683594 10.363281 11.8125 9.570312 11.804688 C 8.777344 11.800781 8.007812 11.660156 7.261719 11.386719 C 6.519531 11.113281 5.839844 10.722656 5.230469 10.214844 C 4.988281 10.101562 4.746094 10.113281 4.515625 10.253906 C 3.882812 10.671875 3.308594 11.164062 2.800781 11.726562 C 2.289062 12.289062 1.855469 12.90625 1.496094 13.574219 C 1.136719 14.246094 0.867188 14.949219 0.683594 15.6875 C 0.5 16.421875 0.40625 17.171875 0.410156 17.933594 C 0.40625 18.148438 0.484375 18.335938 0.636719 18.488281 C 0.792969 18.640625 0.976562 18.71875 1.195312 18.71875 L 18.128906 18.71875 C 18.34375 18.71875 18.53125 18.640625 18.683594 18.488281 C 18.835938 18.335938 18.914062 18.148438 18.914062 17.933594 C 18.914062 17.175781 18.820312 16.425781 18.636719 15.691406 C 18.453125 14.957031 18.183594 14.253906 17.828125 13.585938 C 17.472656 12.914062 17.042969 12.300781 16.535156 11.734375 C 16.027344 11.171875 15.460938 10.679688 14.832031 10.253906 Z M 14.832031 10.253906 " fill-opacity="1" fill-rule="nonzero"/></g></svg>